<svg xmlns="http://www.w3.org/2000/svg" xmlns:xlink="http://www.w3.org/1999/xlink" id="Layer_1" x="0px" y="0px" viewBox="0 0 236.47 27.08" style="enable-background:new 0 0 236.47 27.08;" xml:space="preserve"><style type="text/css">	.st0{fill:#48484A;}	.st1{fill:#CE4B0E;}</style><path class="st0" d="M34.46,18.3v-5.12h-4.14v5.12h-2.39V6.07h2.39v5h4.14v-5h2.39V18.3H34.46z"></path><path class="st0" d="M41.02,14.52c0,1.15,0.7,1.99,1.96,1.99c0.98,0,1.46-0.28,2.03-0.84l1.36,1.32c-0.91,0.91-1.79,1.41-3.4,1.41 c-2.11,0-4.14-0.96-4.14-4.58c0-2.92,1.58-4.57,3.9-4.57c2.49,0,3.9,1.82,3.9,4.28v1H41.02z M44.21,12.03 c-0.24-0.53-0.74-0.93-1.49-0.93c-0.76,0-1.25,0.4-1.49,0.93c-0.14,0.33-0.19,0.57-0.21,0.96h3.4C44.4,12.6,44.35,12.35,44.21,12.03 z"></path><path class="st0" d="M53.79,18.3v-5.41c0-1.22-0.77-1.63-1.48-1.63c-0.7,0-1.49,0.41-1.49,1.63v5.41h-2.23V9.35h2.18v0.82 c0.58-0.62,1.41-0.93,2.23-0.93c0.89,0,1.61,0.29,2.11,0.79c0.72,0.72,0.91,1.56,0.91,2.54v5.72H53.79z"></path><path class="st0" d="M63.46,18.3v-5.41c0-1.22-0.77-1.63-1.48-1.63c-0.7,0-1.49,0.41-1.49,1.63v5.41h-2.23V9.35h2.18v0.82 c0.58-0.62,1.41-0.93,2.23-0.93c0.89,0,1.61,0.29,2.11,0.79c0.72,0.72,0.91,1.56,0.91,2.54v5.72H63.46z"></path><path class="st0" d="M69.76,14.52c0,1.15,0.7,1.99,1.96,1.99c0.98,0,1.46-0.28,2.03-0.84l1.36,1.32c-0.91,0.91-1.79,1.41-3.4,1.41 c-2.11,0-4.14-0.96-4.14-4.58c0-2.92,1.58-4.57,3.9-4.57c2.49,0,3.9,1.82,3.9,4.28v1H69.76z M72.96,12.03 c-0.24-0.53-0.74-0.93-1.49-0.93c-0.76,0-1.25,0.4-1.49,0.93c-0.14,0.33-0.19,0.57-0.21,0.96h3.4 C73.14,12.6,73.09,12.35,72.96,12.03z"></path><path class="st0" d="M83.96,17.59c-0.5,0.5-1.31,0.81-2.18,0.81c-0.91,0-1.58-0.24-2.16-0.89v4.07h-2.23V9.35h2.16v0.84 c0.62-0.69,1.29-0.94,2.23-0.94c0.88,0,1.68,0.31,2.18,0.81c0.89,0.89,0.91,2.42,0.91,3.76C84.87,15.15,84.86,16.7,83.96,17.59z  M81.13,11.26c-1.34,0-1.51,1.1-1.51,2.56c0,1.46,0.17,2.58,1.51,2.58c1.34,0,1.51-1.12,1.51-2.58 C82.64,12.35,82.47,11.26,81.13,11.26z"></path><path class="st0" d="M86.97,7.82V6h2.28v1.82H86.97z M87,18.3V9.35h2.23v8.95H87z"></path><path class="st0" d="M96.82,18.3v-5.41c0-1.22-0.77-1.63-1.48-1.63c-0.7,0-1.49,0.41-1.49,1.63v5.41h-2.23V9.35h2.18v0.82 c0.58-0.62,1.41-0.93,2.23-0.93c0.89,0,1.61,0.29,2.11,0.79c0.72,0.72,0.91,1.56,0.91,2.54v5.72H96.82z"></path><path class="st0" d="M109.68,8.2v10.1h-2.39V8.2h-3.19V6.07h8.78V8.2H109.68z"></path><path class="st0" d="M113.99,14.52c0,1.15,0.7,1.99,1.96,1.99c0.98,0,1.46-0.28,2.03-0.84l1.36,1.32c-0.91,0.91-1.79,1.41-3.4,1.41 c-2.11,0-4.14-0.96-4.14-4.58c0-2.92,1.58-4.57,3.9-4.57c2.49,0,3.9,1.82,3.9,4.28v1H113.99z M117.19,12.03 c-0.24-0.53-0.74-0.93-1.49-0.93c-0.75,0-1.25,0.4-1.49,0.93c-0.14,0.33-0.19,0.57-0.21,0.96h3.4 C117.38,12.6,117.33,12.35,117.19,12.03z"></path><path class="st0" d="M125.21,18.4c-1.79,0-4-0.96-4-4.58c0-3.62,2.21-4.57,4-4.57c1.24,0,2.16,0.38,2.95,1.2l-1.51,1.51 c-0.46-0.5-0.86-0.7-1.44-0.7c-0.53,0-0.95,0.19-1.27,0.58c-0.34,0.43-0.5,1.03-0.5,1.98c0,0.94,0.15,1.56,0.5,1.99 c0.33,0.39,0.74,0.58,1.27,0.58c0.58,0,0.98-0.21,1.44-0.71l1.51,1.5C127.37,18,126.44,18.4,125.21,18.4z"></path><path class="st0" d="M134.94,18.3v-5.46c0-1.19-0.75-1.58-1.46-1.58c-0.7,0-1.44,0.41-1.44,1.58v5.46h-2.23V6.07h2.23v4.1 c0.6-0.62,1.36-0.93,2.15-0.93c1.96,0,2.99,1.37,2.99,3.26v5.79H134.94z"></path><path class="st0" d="M144.61,18.3v-5.41c0-1.22-0.77-1.63-1.48-1.63c-0.7,0-1.49,0.41-1.49,1.63v5.41h-2.23V9.35h2.18v0.82 c0.58-0.62,1.41-0.93,2.23-0.93c0.89,0,1.61,0.29,2.11,0.79c0.72,0.72,0.91,1.56,0.91,2.54v5.72H144.61z"></path><path class="st0" d="M149.04,7.82V6h2.28v1.82H149.04z M149.07,18.3V9.35h2.23v8.95H149.07z"></path><path class="st0" d="M157.13,18.4c-1.79,0-4-0.96-4-4.58c0-3.62,2.21-4.57,4-4.57c1.24,0,2.16,0.38,2.95,1.2l-1.51,1.51 c-0.46-0.5-0.86-0.7-1.44-0.7c-0.53,0-0.94,0.19-1.27,0.58c-0.34,0.43-0.5,1.03-0.5,1.98c0,0.94,0.15,1.56,0.5,1.99 c0.33,0.39,0.74,0.58,1.27,0.58c0.58,0,0.98-0.21,1.44-0.71l1.51,1.5C159.29,18,158.36,18.4,157.13,18.4z"></path><path class="st0" d="M166.45,18.3v-0.77c-0.6,0.6-1.17,0.86-2.2,0.86c-1.01,0-1.75-0.26-2.28-0.79c-0.48-0.5-0.74-1.22-0.74-2.01 c0-1.42,0.98-2.59,3.06-2.59h2.11v-0.45c0-0.98-0.48-1.41-1.67-1.41c-0.86,0-1.25,0.21-1.72,0.74l-1.42-1.39 c0.88-0.96,1.73-1.24,3.23-1.24c2.51,0,3.81,1.06,3.81,3.16v5.89H166.45z M166.4,14.52h-1.77c-0.81,0-1.25,0.38-1.25,1.01 c0,0.62,0.41,1.03,1.29,1.03c0.62,0,1.01-0.05,1.41-0.43c0.24-0.22,0.33-0.58,0.33-1.13V14.52z"></path><path class="st0" d="M173.22,18.3c-1.84,0-2.61-1.29-2.61-2.56V6.07h2.23v9.53c0,0.53,0.22,0.81,0.79,0.81h0.86v1.89H173.22z"></path><path class="st0" d="M184.51,18.4c-1.3,0-2.4-0.45-3.3-1.34c-0.53-0.53-0.86-1.15-1-1.84c-0.14-0.69-0.21-1.7-0.21-3.04 c0-1.34,0.07-2.35,0.21-3.04c0.14-0.7,0.46-1.3,1-1.84c0.89-0.89,1.99-1.34,3.3-1.34c2.35,0,4.09,1.37,4.5,3.86h-2.42 c-0.26-1.05-0.91-1.73-2.06-1.73c-0.65,0-1.17,0.21-1.53,0.64c-0.5,0.53-0.6,1.08-0.6,3.45s0.1,2.92,0.6,3.45 c0.36,0.43,0.88,0.64,1.53,0.64c1.15,0,1.8-0.69,2.06-1.74h2.42C188.6,17.03,186.85,18.4,184.51,18.4z"></path><path class="st0" d="M196.86,17.3c-0.55,0.58-1.46,1.1-2.78,1.1c-1.32,0-2.21-0.51-2.76-1.1c-0.81-0.84-1.01-1.85-1.01-3.49 c0-1.62,0.21-2.63,1.01-3.47c0.55-0.58,1.44-1.1,2.76-1.1c1.32,0,2.23,0.51,2.78,1.1c0.81,0.84,1.01,1.86,1.01,3.47 C197.87,15.45,197.67,16.46,196.86,17.3z M195.13,11.65c-0.26-0.26-0.6-0.4-1.05-0.4c-0.45,0-0.77,0.14-1.03,0.4 c-0.46,0.46-0.52,1.24-0.52,2.16c0,0.93,0.05,1.72,0.52,2.18c0.26,0.26,0.58,0.4,1.03,0.4c0.45,0,0.79-0.14,1.05-0.4 c0.46-0.46,0.51-1.25,0.51-2.18C195.64,12.89,195.59,12.11,195.13,11.65z"></path><path class="st0" d="M202.36,18.3c-1.84,0-2.61-1.29-2.61-2.56V6.07h2.23v9.53c0,0.53,0.22,0.81,0.79,0.81h0.86v1.89H202.36z"></path><path class="st0" d="M207.68,18.3c-1.84,0-2.61-1.29-2.61-2.56V6.07h2.23v9.53c0,0.53,0.22,0.81,0.79,0.81h0.86v1.89H207.68z"></path><path class="st0" d="M212.14,14.52c0,1.15,0.7,1.99,1.96,1.99c0.98,0,1.46-0.28,2.03-0.84l1.36,1.32c-0.91,0.91-1.79,1.41-3.4,1.41 c-2.11,0-4.14-0.96-4.14-4.58c0-2.92,1.58-4.57,3.9-4.57c2.49,0,3.9,1.82,3.9,4.28v1H212.14z M215.34,12.03 c-0.24-0.53-0.74-0.93-1.49-0.93c-0.76,0-1.25,0.4-1.49,0.93c-0.14,0.33-0.19,0.57-0.21,0.96h3.4 C215.53,12.6,215.47,12.35,215.34,12.03z"></path><path class="st0" d="M222.94,21.68c-1.37,0-2.32-0.28-3.25-1.17l1.39-1.41c0.5,0.48,1,0.69,1.75,0.69c1.34,0,1.8-0.95,1.8-1.86 v-0.91c-0.58,0.65-1.25,0.89-2.13,0.89c-0.88,0-1.63-0.29-2.13-0.79c-0.84-0.84-0.91-1.99-0.91-3.55s0.07-2.7,0.91-3.54 c0.5-0.5,1.27-0.79,2.15-0.79c0.94,0,1.56,0.26,2.18,0.94V9.35h2.16v8.62C226.88,20.12,225.35,21.68,222.94,21.68z M223.17,11.26 c-1.32,0-1.46,1.13-1.46,2.32c0,1.18,0.14,2.34,1.46,2.34c1.32,0,1.48-1.15,1.48-2.34C224.64,12.39,224.49,11.26,223.17,11.26z"></path><path class="st0" d="M230.88,14.52c0,1.15,0.7,1.99,1.96,1.99c0.98,0,1.46-0.28,2.03-0.84l1.36,1.32c-0.91,0.91-1.79,1.41-3.4,1.41 c-2.11,0-4.14-0.96-4.14-4.58c0-2.92,1.58-4.57,3.9-4.57c2.49,0,3.9,1.82,3.9,4.28v1H230.88z M234.07,12.03 c-0.24-0.53-0.74-0.93-1.49-0.93c-0.76,0-1.25,0.4-1.5,0.93c-0.14,0.33-0.19,0.57-0.21,0.96h3.4 C234.26,12.6,234.21,12.35,234.07,12.03z"></path><polygon class="st1" points="13.97,0 13.97,8.73 6.99,8.73 6.99,0 0,0 0,24.45 6.99,24.45 6.99,15.62 13.97,15.62 13.97,24.45  20.96,24.45 20.96,0 "></polygon><polygon class="st0" points="11.35,27.08 6.98,24.45 6.98,15.62 11.35,18.24 "></polygon></svg>