<?xml version="1.0" encoding="utf-8"?>
<!-- Generator: Adobe Illustrator 27.2.0, SVG Export Plug-In . SVG Version: 6.00 Build 0)  -->
<svg version="1.1" id="Layer_1" xmlns="http://www.w3.org/2000/svg" xmlns:xlink="http://www.w3.org/1999/xlink" x="0px" y="0px"
	 viewBox="0 0 187 144" height="55" width="72" style="enable-background:new 0 0 187 144;" xml:space="preserve">
<style type="text/css">
	.st0{fill:#0F2439;}
</style>
<g>
	<polygon class="st0" points="72.4,0 17.4,0 15.5,0 15.5,1.9 15.5,41.3 19,41.3 19,3.6 70.7,3.6 70.7,41.3 74.2,41.3 74.2,1.9 
		74.2,0 	"/>
	<polygon class="st0" points="173.2,0 118.2,0 116.3,0 116.3,1.9 116.3,41.3 119.8,41.3 119.8,3.6 171.5,3.6 171.5,41.3 175.1,41.3 
		175.1,1.9 175.1,0 	"/>
	<g>
		<path class="st0" d="M70.7,88.8v13.3c0,11.5,0,18.4,20,18.4h9.1c20,0,20-6.9,20-18.4V88.8c-1.2-0.1-2.3-0.2-3.5-0.2v13.5
			c0,5.3,0,9.2-1.9,11.4c-2,2.3-6.5,3.4-14.6,3.4h-9.1c-8.2,0-12.7-1-14.6-3.4c-1.9-2.2-1.9-6.1-1.9-11.4V88.6
			C73.1,88.7,71.9,88.8,70.7,88.8z"/>
		<path class="st0" d="M175.1,110.5V96.7c-1.2-0.3-2.4-0.5-3.5-0.7v14.6c0.1,1.3,0.1,8-5.8,14.9c-7.9,9.2-22.6,14.2-43.6,14.9h0
			H68.4c-21-0.6-35.7-5.6-43.6-14.9c-6.1-7.1-5.8-14.2-5.8-14.9V96c0,0-0.2,0-3.5,0.7v13.8c-0.1,1.6,0,9.6,6.7,17.4
			c8.6,10,24.2,15.4,46.2,16.1h0h0h53.7h0h0l0.1,0c22-0.6,37.5-6.1,46.1-16.1C174.9,120.3,175.1,112.7,175.1,110.5z"/>
	</g>
	<g>
		<rect x="122.1" y="6" class="st0" width="47.1" height="35.4"/>
		<path class="st0" d="M169.2,95.5c-15.6-3.2-31.3-5.4-47.1-6.5v13.1c0,11.6,0,20.7-22.3,20.7h-9.1c-22.3,0-22.3-9.2-22.3-20.7V89
			c-15.8,1.1-31.6,3.3-47.1,6.5v15.2c0,0-2.1,25.9,47.1,27.4h53.7c49.3-1.5,47.1-27.4,47.1-27.4V95.5z"/>
		<rect x="21.3" y="6" class="st0" width="47.1" height="35.4"/>
	</g>
	<g>
		<path class="st0" d="M40.2,47.2c0,2.7,0,5.3-0.1,8c4.7-0.2,9.3-0.3,14-0.4C54.1,64.5,54,74.2,53.9,84c4.3-0.4,8.6-0.8,12.9-1
			c0-9.5,0.1-19,0.1-28.4c5-0.1,10.1-0.1,15.1-0.2c1.2-2.4,2.5-4.9,3.7-7.3C70.6,47,55.4,47.1,40.2,47.2z"/>
		<path class="st0" d="M101.3,68c-2-4.7-4-9.5-6-14.2c-0.1,0-0.1,0-0.2,0c-2.1,4.7-4.3,9.4-6.4,14.1C93,67.9,97.2,68,101.3,68z
			 M88.1,47c5.2,0,10.4,0,15.5,0c6.1,11.8,12.2,23.7,18.3,36.3c-4.8-0.4-9.6-0.7-14.5-0.8c-1.1-2.4-2.2-4.8-3.2-7.2
			C98.1,75.1,92,75,85.8,75.1c-1,2.4-2.1,4.7-3.1,7.1c-4.3,0.1-8.5,0.3-12.8,0.5C76,70.5,82.1,58.7,88.1,47z"/>
		<g>
			<path class="st0" d="M0.1,86.6c0-3,0-6,0-8.9c4.4-0.7,8.9-1.4,13.3-2c0,1.7,0,3.4,0,5c0,0.7,0.7,1.2,1.5,1.1
				c2.7-0.4,5.4-0.9,8.2-1.3c0.5-0.1,1.3-0.7,1.3-1.4c0-2.1,0-4.1,0-6.2c0-0.1-18.5,0.8-18.8,0.8C3.2,73.9,0,71.2,0,68.9
				c0-4.9,0-9.9,0-14.8c0-3.6,3.1-6.7,6.7-6.7c8.3-0.1,16.6-0.2,24.9-0.2c3.8,0,6.5,2.7,6.5,5.4c0,2.4,0,4.7,0,7.1
				c-4.5,0.2-8.9,0.5-13.4,0.7c0-1.5,0-2.9,0-4.4c0-0.6-0.8-1.3-1.7-1.2c-2.9,0.1-5.8,0.2-8.7,0.4c-0.8,0-1.3,0.9-1.3,1.4
				c0,2.1,0,4.1,0,6.2c0,0,16.6,0.2,18,0.3c2.5,0,7.6,0.7,7.6,4.1c0,4.4-0.1,8.7-0.1,13.1c0,2.8-5,6.3-8.1,6.8
				c-8,1.3-15.9,2.8-23.8,4.5C3.2,92.3,0.1,89.4,0.1,86.6"/>
		</g>
		<path class="st0" d="M164.7,80.3c0-2.9,0-5.8,0-8.8c6.7,0.7,13.4,1.6,20.1,2.5c0-2.9,0-5.7,0-8.6c-6.7-0.7-13.4-1.3-20.1-1.8
			c0-2.7,0-5.3,0-8c7.2,0.3,14.3,0.7,21.4,1.1c0-0.2,0-0.4,0-0.6c0-2.9,0-5.8,0-8.7c0,0,0-0.1,0-0.1c-25.5-0.3-54.5-0.4-80-0.4
			c1.2,2.4,2.5,4.9,3.7,7.4c5,0.1,10.1,0.1,15.1,0.2c0.1,9.6,0.1,19.3,0.2,28.9c4.3,0.4,8.6,0.8,12.9,1.3c-0.1-10-0.1-19.9-0.2-29.9
			c3.6,0.1,10.7,0.2,14.3,0.3c0.1,10.3,0.1,20.7,0.2,31c11.7,1.7,23.3,3.9,34.8,6.7c0-2.9,0-5.9,0-8.8
			C179.6,82.7,172.2,81.4,164.7,80.3z"/>
	</g>
	<g>
		<path class="st0" d="M187,127.8c0,2.5-2,4.4-4.6,4.4c-2.6,0-4.7-1.9-4.7-4.4c0-2.4,2.1-4.4,4.7-4.4C185,123.4,187,125.3,187,127.8
			z M178.8,127.8c0,1.9,1.5,3.5,3.5,3.5c2,0,3.5-1.5,3.5-3.5c0-1.9-1.5-3.5-3.5-3.5C180.3,124.3,178.8,125.9,178.8,127.8z
			 M181.6,130.1h-1.1v-4.4c0.4-0.1,1-0.1,1.7-0.1c0.9,0,1.2,0.1,1.6,0.3c0.2,0.2,0.4,0.5,0.4,1c0,0.5-0.4,0.9-0.9,1v0.1
			c0.4,0.2,0.7,0.5,0.8,1.1c0.1,0.7,0.2,0.9,0.3,1.1h-1.1c-0.1-0.2-0.2-0.6-0.4-1.1c-0.1-0.5-0.4-0.7-0.9-0.7h-0.5V130.1z
			 M181.7,127.6h0.5c0.6,0,1.1-0.2,1.1-0.6c0-0.4-0.3-0.7-1-0.7c-0.3,0-0.5,0-0.6,0.1V127.6z"/>
	</g>
</g>
</svg>
